<svg width="274" height="60" viewBox="0 0 274 60" fill="none" xmlns="http://www.w3.org/2000/svg">
<path d="M44.6407 57.2306C43.5124 58.4616 41.8012 59.0765 39.4932 59.0765H37.1858V44.6284H39.397C41.8589 44.6284 43.6279 45.154 44.7112 46.1984C45.7818 47.2432 46.3203 48.9999 46.3203 51.4613C46.3203 54.0767 45.7625 55.9996 44.6407 57.2306ZM37.1858 30.4615H39.6793C41.5509 30.4615 42.9097 30.9807 43.7369 32.032C44.5701 33.0769 44.9866 34.8271 44.9866 37.2885C44.9866 39.6601 44.5316 41.3205 43.6214 42.2755C42.7177 43.2305 41.2306 43.7049 39.1729 43.7049H37.1858V30.4615ZM51.1217 46.4037C49.5512 45.0064 47.0764 44.1214 43.692 43.7498C46.647 43.2305 48.7303 42.3268 49.9485 41.0509C51.1602 39.7756 51.7687 38.3526 51.7687 36.7821C51.7687 34.6923 50.9356 32.9614 49.2752 31.5898C47.6149 30.2241 44.9102 29.5385 41.1536 29.5385H23.5831V22.7564C23.5831 20.4806 23.596 18.2502 23.628 16.0641H31.0572C31.7689 16.0641 32.3202 16.231 32.7175 16.5705C33.1213 16.9101 33.4742 17.3716 33.7817 17.955L36.4099 22.8013H36.8714L36.5511 15.1412H14.2113V15.6027L15.2305 15.9679C15.8139 16.1861 16.1919 16.4807 16.3588 16.8459C16.5256 17.2181 16.6149 17.7117 16.6149 18.3272C16.6406 20.1731 16.6598 22.0254 16.6598 23.8847V29.5385H9.41624V3.2309C9.41624 2.61542 9.51891 2.11543 9.73709 1.73096C9.95526 1.34648 10.3526 1.04489 10.936 0.827247L11.7691 0.461482V1.56359e-06H0V0.461482L0.967883 0.827247C1.58337 1.04489 1.98068 1.34006 2.16677 1.70529C2.35232 2.07693 2.44216 2.5705 2.44216 3.18598V27.2755C2.44216 27.891 2.35874 28.3781 2.1919 28.7305C2.01918 29.0835 1.61545 29.3845 0.967883 29.6284L0 30V30.4615H16.6598V36.9227C16.6598 38.8013 16.6406 40.66 16.6149 42.5065C16.6149 43.1215 16.5064 43.615 16.2882 43.9872C16.077 44.3524 15.6599 44.6471 15.0449 44.8588L14.2113 45.1412V45.6027H26.7691V45.1412L25.3847 44.7241C24.2114 44.3524 23.628 43.5706 23.628 42.3718C23.596 40.4937 23.5831 38.5767 23.5831 36.6217V30.4615H28.3845C28.7819 30.4615 29.115 30.5192 29.3909 30.6219C29.6663 30.7882 29.8717 30.9807 30.0064 31.1989C30.2369 31.5705 30.3524 32.0769 30.3524 32.7245V56.814C30.3524 57.4295 30.2369 57.9231 30.0064 58.2883C29.7754 58.6599 29.3524 58.968 28.7369 59.2113L27.9102 59.538V60H39.6344C42.3718 60 44.6278 59.7433 46.4165 59.2369C48.1983 58.7305 49.6084 58.0573 50.6404 57.2306C51.6666 56.3975 52.3971 55.4804 52.8329 54.4804C53.2623 53.4804 53.474 52.4933 53.474 51.5062C53.474 49.5063 52.6917 47.8074 51.1217 46.4037Z" fill="#CA7E59"/>
<path d="M268.518 34.0905C268.761 34.0905 268.988 34.0338 269.2 33.9183C269.413 33.8028 269.664 33.6242 269.955 33.3819V30.3275C269.833 30.3516 269.712 30.3762 269.591 30.4002C269.47 30.4248 269.331 30.4484 269.174 30.4724C268.616 30.6184 268.17 30.8638 267.837 31.2088C267.504 31.5547 267.337 32.0178 267.337 32.6002C267.337 33.0975 267.452 33.4696 267.683 33.7183C267.912 33.9669 268.192 34.0905 268.518 34.0905ZM267.409 35.1995C266.706 35.1995 266.116 34.9995 265.637 34.5995C265.158 34.1996 264.919 33.6242 264.919 32.8729C264.919 32.3028 265.21 31.7788 265.791 31.2997C266.373 30.8216 267.288 30.4607 268.537 30.2184C268.73 30.1815 268.949 30.1425 269.191 30.0997C269.433 30.0575 269.688 30.012 269.955 29.9633V28.5276C269.955 27.7035 269.855 27.1244 269.655 26.7913C269.455 26.4581 269.142 26.2907 268.718 26.2907C268.428 26.2907 268.197 26.3849 268.028 26.5726C267.858 26.7608 267.749 27.0848 267.701 27.5458L267.664 27.7458C267.639 28.2666 267.512 28.6484 267.282 28.8907C267.052 29.1334 266.767 29.2543 266.428 29.2543C266.113 29.2543 265.852 29.1575 265.646 28.9634C265.439 28.7698 265.337 28.5089 265.337 28.1816C265.337 27.6848 265.509 27.2667 265.855 26.9271C266.2 26.5881 266.658 26.3335 267.228 26.164C267.797 25.994 268.416 25.9089 269.083 25.9089C270.161 25.9089 270.994 26.1726 271.582 26.7004C272.17 27.2271 272.464 28.0853 272.464 29.2725V33.291C272.464 33.8359 272.718 34.1087 273.228 34.1087H273.628L273.791 34.2546C273.561 34.5455 273.309 34.7701 273.036 34.9268C272.764 35.084 272.379 35.1637 271.882 35.1637C271.349 35.1637 270.927 35.0386 270.618 34.791C270.31 34.5423 270.107 34.2124 270.009 33.7996C269.646 34.1883 269.273 34.5183 268.891 34.791C268.509 35.0632 268.016 35.1995 267.409 35.1995ZM261.846 24.9641C261.434 24.9641 261.086 24.8336 260.801 24.5726C260.516 24.3122 260.374 23.9823 260.374 23.5823C260.374 23.17 260.516 22.8363 260.801 22.5823C261.086 22.3278 261.434 22.2005 261.846 22.2005C262.258 22.2005 262.604 22.3278 262.883 22.5823C263.161 22.8363 263.301 23.17 263.301 23.5823C263.301 23.9823 263.161 24.3122 262.883 24.5726C262.604 24.8336 262.258 24.9641 261.846 24.9641ZM259.701 34.9268V34.7455L259.955 34.6728C260.197 34.5995 260.365 34.4905 260.456 34.3455C260.547 34.1996 260.592 34.006 260.592 33.7637V28.0725C260.592 27.8185 260.547 27.6271 260.456 27.5003C260.365 27.3725 260.197 27.2848 259.955 27.2367L259.701 27.1816V26.9998L263.028 25.9271L263.21 26.1089L263.156 28.6907V33.7819C263.156 34.0242 263.201 34.2177 263.292 34.3637C263.383 34.5086 263.543 34.6177 263.774 34.6904L263.956 34.7455V34.9268H259.701ZM253.956 31.4184C254.44 31.4184 254.795 31.2184 255.019 30.8184C255.244 30.4184 255.356 29.7516 255.356 28.8185C255.356 27.8853 255.244 27.2271 255.019 26.8453C254.795 26.4635 254.453 26.2731 253.992 26.2731C253.544 26.2731 253.204 26.4699 252.974 26.8635C252.744 27.2581 252.629 27.9212 252.629 28.8543C252.629 29.788 252.735 30.4484 252.947 30.836C253.159 31.2248 253.495 31.4184 253.956 31.4184ZM251.247 36.4546C251.247 37.1695 251.468 37.7091 251.91 38.0721C252.353 38.4358 253.053 38.6181 254.01 38.6181C255.016 38.6181 255.774 38.454 256.283 38.1272C256.792 37.8 257.047 37.339 257.047 36.7455C257.047 36.4059 256.922 36.1326 256.674 35.9273C256.425 35.7209 256.004 35.5637 255.41 35.4546L252.12 34.8364C252.022 34.8124 251.925 34.7878 251.829 34.7637C251.659 35.0059 251.52 35.2819 251.411 35.591C251.301 35.9 251.247 36.1877 251.247 36.4546ZM253.974 31.782C253.138 31.782 252.429 31.6424 251.847 31.3633V31.982C251.847 32.3579 252.035 32.582 252.41 32.6542L255.829 33.291C256.398 33.3996 256.913 33.5429 257.374 33.7183C257.835 33.8937 258.204 34.1423 258.483 34.4632C258.762 34.7846 258.901 35.2236 258.901 35.7813C258.901 36.3749 258.707 36.9241 258.319 37.4267C257.931 37.9299 257.358 38.3358 256.601 38.6454C255.843 38.9545 254.901 39.109 253.774 39.109C252.804 39.109 252.035 39.0085 251.465 38.8085C250.895 38.6085 250.492 38.3513 250.256 38.0363C250.02 37.7208 249.901 37.3877 249.901 37.0364C249.901 36.5995 250.05 36.1605 250.347 35.7177C250.644 35.2755 251.011 34.9215 251.447 34.6546C251.071 34.5086 250.798 34.3215 250.629 34.0905C250.459 33.8605 250.374 33.6119 250.374 33.345C250.374 33.1028 250.437 32.8761 250.565 32.6632C250.692 32.452 250.847 32.236 251.029 32.0178L251.629 31.2542C250.744 30.7451 250.301 29.9452 250.301 28.8543C250.301 27.9816 250.614 27.2725 251.238 26.7271C251.862 26.1822 252.78 25.9089 253.992 25.9089C254.61 25.9089 255.153 25.9822 255.619 26.1271C256.086 26.2731 256.471 26.4795 256.774 26.7458C257.162 26.6849 257.528 26.5849 257.874 26.4453C258.219 26.3063 258.531 26.1154 258.81 25.8731L259.065 26.0549V26.9816H257.01C257.447 27.4666 257.665 28.0907 257.665 28.8543C257.665 29.7029 257.353 30.4029 256.728 30.9548C256.104 31.5061 255.186 31.782 253.974 31.782ZM244.702 34.8364C245.126 34.8364 245.465 34.715 245.719 34.4728C245.974 34.2306 246.159 33.7996 246.274 33.1819C246.389 32.5638 246.447 31.6911 246.447 30.5633C246.447 29.4243 246.389 28.5457 246.274 27.9276C246.159 27.3089 245.974 26.879 245.719 26.6367C245.465 26.394 245.126 26.2731 244.702 26.2731C244.277 26.2731 243.935 26.394 243.674 26.6367C243.413 26.879 243.226 27.3089 243.11 27.9276C242.996 28.5457 242.938 29.4243 242.938 30.5633C242.938 31.6911 242.996 32.5638 243.11 33.1819C243.226 33.7996 243.413 34.2306 243.674 34.4728C243.935 34.715 244.277 34.8364 244.702 34.8364ZM244.702 35.1995C243.78 35.1995 242.98 35.0092 242.302 34.6274C241.623 34.245 241.099 33.7028 240.729 33.0001C240.359 32.297 240.175 31.4724 240.175 30.5275C240.175 29.5815 240.371 28.7634 240.765 28.0725C241.159 27.3816 241.699 26.8485 242.384 26.4731C243.068 26.0972 243.841 25.9089 244.702 25.9089C245.562 25.9089 246.332 26.094 247.01 26.4635C247.689 26.8335 248.226 27.364 248.62 28.0549C249.013 28.7457 249.211 29.5698 249.211 30.5275C249.211 31.4847 249.026 32.3119 248.656 33.0092C248.286 33.706 247.765 34.245 247.092 34.6274C246.42 35.0092 245.622 35.1995 244.702 35.1995ZM234.957 34.9268V34.7455L235.175 34.6728C235.611 34.5268 235.829 34.2242 235.829 33.7637V24.0363C235.829 23.794 235.781 23.609 235.684 23.4818C235.586 23.355 235.417 23.2609 235.175 23.2005L234.938 23.1454V22.9636L238.266 22.1818L238.484 22.3454L238.411 24.8913V31.1093C238.411 31.5579 238.414 32.0034 238.42 32.4456C238.426 32.8878 238.429 33.3269 238.429 33.7637C238.429 34.006 238.477 34.2028 238.575 34.3541C238.672 34.506 238.835 34.6177 239.065 34.6904L239.302 34.7455V34.9268H234.957ZM229.666 34.8364C230.09 34.8364 230.429 34.715 230.683 34.4728C230.939 34.2306 231.122 33.7996 231.238 33.1819C231.353 32.5638 231.411 31.6911 231.411 30.5633C231.411 29.4243 231.353 28.5457 231.238 27.9276C231.122 27.3089 230.939 26.879 230.683 26.6367C230.429 26.394 230.09 26.2731 229.666 26.2731C229.241 26.2731 228.899 26.394 228.639 26.6367C228.378 26.879 228.19 27.3089 228.074 27.9276C227.959 28.5457 227.902 29.4243 227.902 30.5633C227.902 31.6911 227.959 32.5638 228.074 33.1819C228.19 33.7996 228.378 34.2306 228.639 34.4728C228.899 34.715 229.241 34.8364 229.666 34.8364ZM229.666 35.1995C228.744 35.1995 227.945 35.0092 227.265 34.6274C226.587 34.245 226.062 33.7028 225.693 33.0001C225.323 32.297 225.139 31.4724 225.139 30.5275C225.139 29.5815 225.336 28.7634 225.729 28.0725C226.123 27.3816 226.663 26.8485 227.348 26.4731C228.032 26.0972 228.804 25.9089 229.666 25.9089C230.526 25.9089 231.296 26.094 231.974 26.4635C232.653 26.8335 233.19 27.364 233.584 28.0549C233.977 28.7457 234.174 29.5698 234.174 30.5275C234.174 31.4847 233.99 32.3119 233.62 33.0092C233.25 33.706 232.729 34.245 232.056 34.6274C231.384 35.0092 230.586 35.1995 229.666 35.1995ZM220.703 35.1995C219.878 35.1995 219.13 35.0209 218.457 34.6632C217.784 34.306 217.251 33.7851 216.857 33.0996C216.463 32.4151 216.266 31.5756 216.266 30.5815C216.266 29.6003 216.481 28.7607 216.912 28.0634C217.342 27.3672 217.918 26.8335 218.639 26.4635C219.36 26.094 220.151 25.9089 221.012 25.9089C221.714 25.9089 222.308 26.0244 222.793 26.2549C223.278 26.4849 223.648 26.7849 223.902 27.1544C224.157 27.5244 224.284 27.9089 224.284 28.3089C224.284 28.6484 224.181 28.912 223.975 29.0997C223.769 29.2885 223.502 29.3815 223.175 29.3815C222.823 29.3815 222.539 29.2543 222.32 28.9997C222.102 28.7457 221.975 28.4121 221.939 27.9998C221.927 27.7335 221.932 27.5062 221.957 27.3185C221.981 27.1303 221.981 26.9394 221.957 26.7458C221.908 26.5394 221.832 26.403 221.73 26.3362C221.627 26.2699 221.484 26.2362 221.302 26.2362C220.563 26.2362 219.99 26.5576 219.584 27.1998C219.178 27.8426 218.975 28.8666 218.975 30.2724C218.975 31.497 219.202 32.4333 219.657 33.0814C220.112 33.7301 220.812 34.0546 221.757 34.0546C222.327 34.0546 222.787 33.9514 223.139 33.745C223.49 33.5397 223.83 33.2306 224.157 32.8178L224.339 32.9638C224.035 33.6787 223.569 34.2306 222.939 34.6177C222.308 35.0059 221.562 35.1995 220.703 35.1995ZM213.285 24.9641C212.872 24.9641 212.524 24.8336 212.239 24.5726C211.955 24.3122 211.812 23.9823 211.812 23.5823C211.812 23.17 211.955 22.8363 212.239 22.5823C212.524 22.3278 212.872 22.2005 213.285 22.2005C213.696 22.2005 214.042 22.3278 214.321 22.5823C214.6 22.8363 214.74 23.17 214.74 23.5823C214.74 23.9823 214.6 24.3122 214.321 24.5726C214.042 24.8336 213.696 24.9641 213.285 24.9641ZM211.139 34.9268V34.7455L211.394 34.6728C211.636 34.5995 211.803 34.4905 211.894 34.3455C211.985 34.1996 212.03 34.006 212.03 33.7637V28.0725C212.03 27.8185 211.985 27.6271 211.894 27.5003C211.803 27.3725 211.636 27.2848 211.394 27.2367L211.139 27.1816V26.9998L214.466 25.9271L214.648 26.1089L214.594 28.6907V33.7819C214.594 34.0242 214.639 34.2177 214.73 34.3637C214.821 34.5086 214.982 34.6177 215.212 34.6904L215.394 34.7455V34.9268H211.139ZM206.376 35.1995C205.782 35.1995 205.249 35.1295 204.776 34.991C204.303 34.8514 203.867 34.6792 203.467 34.4728L203.485 32.3087H203.667L204.285 33.3996C204.552 33.8846 204.846 34.245 205.167 34.4814C205.488 34.7183 205.897 34.8364 206.394 34.8364C206.976 34.8364 207.446 34.706 207.804 34.445C208.161 34.1851 208.34 33.8359 208.34 33.3996C208.34 33.0001 208.213 32.6729 207.958 32.4178C207.703 32.1633 207.231 31.9333 206.54 31.7269L205.776 31.4911C205.037 31.2724 204.454 30.9334 204.03 30.4724C203.606 30.012 203.395 29.4484 203.395 28.7816C203.395 27.9816 203.71 27.3035 204.339 26.7458C204.97 26.1881 205.873 25.9089 207.049 25.9089C207.522 25.9089 207.967 25.9608 208.385 26.0635C208.803 26.1672 209.206 26.3218 209.594 26.5271L209.485 28.4907H209.303L208.667 27.364C208.437 26.964 208.209 26.6822 207.985 26.5185C207.761 26.3544 207.424 26.2731 206.976 26.2731C206.564 26.2731 206.176 26.3881 205.812 26.618C205.449 26.8485 205.267 27.1757 205.267 27.5998C205.267 28.0121 205.422 28.3393 205.731 28.5816C206.039 28.8243 206.497 29.0484 207.103 29.2543L207.922 29.4906C208.794 29.7575 209.418 30.1243 209.794 30.5906C210.17 31.0574 210.357 31.6178 210.357 32.2729C210.357 33.1573 210.009 33.8664 209.312 34.3996C208.615 34.9327 207.636 35.1995 206.376 35.1995ZM196.886 29.9452H197.577C198.17 29.9452 198.655 29.8484 199.031 29.6543C199.406 29.4607 199.685 29.1211 199.867 28.6367C200.049 28.1522 200.14 27.4789 200.14 26.618C200.14 25.7458 200.04 25.0667 199.84 24.5823C199.64 24.0978 199.346 23.7614 198.958 23.5727C198.57 23.385 198.085 23.2914 197.503 23.2914H196.886V29.9452ZM193.195 34.9268V34.7455L193.558 34.6177C193.8 34.5455 193.961 34.4359 194.04 34.2905C194.119 34.1455 194.158 33.9514 194.158 33.7087V24.1823C194.158 23.94 194.116 23.7454 194.031 23.6005C193.946 23.4545 193.782 23.3401 193.54 23.2545L193.195 23.1096V22.9272H197.612C199.418 22.9272 200.725 23.2577 201.531 23.9186C202.336 24.579 202.74 25.4485 202.74 26.5271C202.74 27.218 202.573 27.8517 202.24 28.427C201.906 29.003 201.358 29.4607 200.595 29.8002C199.831 30.1393 198.801 30.3093 197.503 30.3093H196.886V33.6547C196.886 34.1268 197.122 34.4359 197.594 34.5814L198.14 34.7455V34.9268H193.195ZM184.486 26.2731C184.134 26.2731 183.835 26.379 183.586 26.5913C183.338 26.803 183.144 27.179 183.004 27.718C182.865 28.2581 182.789 29.0185 182.777 30.0002H185.887C186.007 28.6789 185.959 27.7276 185.741 27.1458C185.522 26.564 185.104 26.2731 184.486 26.2731ZM184.541 25.9089C185.329 25.9089 186.002 26.0699 186.559 26.3913C187.116 26.7121 187.543 27.149 187.841 27.7003C188.138 28.2516 188.286 28.8789 188.286 29.5815C188.286 29.7152 188.28 29.8516 188.268 29.9906C188.256 30.1307 188.231 30.2542 188.195 30.3633H182.777C182.789 31.6729 183.023 32.6151 183.477 33.1905C183.932 33.767 184.607 34.0546 185.504 34.0546C186.111 34.0546 186.602 33.9573 186.977 33.7637C187.353 33.5696 187.704 33.2846 188.031 32.9087L188.213 33.0729C187.837 33.7397 187.338 34.2605 186.714 34.6364C186.089 35.0118 185.341 35.1995 184.468 35.1995C183.608 35.1995 182.843 35.015 182.177 34.645C181.51 34.276 180.989 33.745 180.614 33.0547C180.238 32.3638 180.05 31.5392 180.05 30.5815C180.05 29.588 180.268 28.7425 180.704 28.0452C181.141 27.349 181.701 26.818 182.386 26.4549C183.071 26.0908 183.789 25.9089 184.541 25.9089ZM174.451 34.5268C174.959 34.5268 175.426 34.3755 175.85 34.0728V26.8549C175.401 26.564 174.942 26.418 174.468 26.418C173.887 26.418 173.39 26.7544 172.978 27.4271C172.566 28.1003 172.36 29.1575 172.36 30.6002C172.36 32.0424 172.553 33.0574 172.942 33.645C173.329 34.2338 173.833 34.5268 174.451 34.5268ZM173.396 35.1995C172.681 35.1995 172.038 35.0386 171.469 34.7183C170.899 34.3969 170.448 33.9001 170.114 33.2274C169.781 32.5547 169.614 31.6911 169.614 30.636C169.614 29.5698 169.802 28.688 170.178 27.9912C170.553 27.2939 171.051 26.7726 171.669 26.4276C172.287 26.0817 172.96 25.9089 173.687 25.9089C174.111 25.9089 174.517 25.9517 174.905 26.0362C175.293 26.1218 175.638 26.2485 175.942 26.418V24.0545C175.942 23.8005 175.902 23.6122 175.823 23.4914C175.744 23.37 175.577 23.285 175.323 23.2363L174.977 23.1636V22.9823L178.287 22.1818L178.487 22.3454L178.414 24.8913V33.7819C178.414 34.0242 178.456 34.2209 178.541 34.3723C178.626 34.5247 178.783 34.6306 179.014 34.6904L179.178 34.7455V34.9268L176.068 35.1268L175.905 34.4728C175.577 34.6904 175.205 34.8664 174.787 34.9995C174.369 35.1327 173.905 35.1995 173.396 35.1995ZM160.269 34.8364C160.693 34.8364 161.033 34.715 161.288 34.4728C161.542 34.2306 161.727 33.7996 161.842 33.1819C161.957 32.5638 162.015 31.6911 162.015 30.5633C162.015 29.4243 161.957 28.5457 161.842 27.9276C161.727 27.3089 161.542 26.879 161.288 26.6367C161.033 26.394 160.693 26.2731 160.269 26.2731C159.845 26.2731 159.503 26.394 159.242 26.6367C158.982 26.879 158.793 27.3089 158.679 27.9276C158.563 28.5457 158.506 29.4243 158.506 30.5633C158.506 31.6911 158.563 32.5638 158.679 33.1819C158.793 33.7996 158.982 34.2306 159.242 34.4728C159.503 34.715 159.845 34.8364 160.269 34.8364ZM160.269 35.1995C159.348 35.1995 158.548 35.0092 157.869 34.6274C157.191 34.245 156.666 33.7028 156.297 33.0001C155.927 32.297 155.742 31.4724 155.742 30.5275C155.742 29.5815 155.939 28.7634 156.333 28.0725C156.727 27.3816 157.266 26.8485 157.951 26.4731C158.636 26.0972 159.409 25.9089 160.269 25.9089C161.13 25.9089 161.899 26.094 162.578 26.4635C163.257 26.8335 163.793 27.364 164.187 28.0549C164.581 28.7457 164.778 29.5698 164.778 30.5275C164.778 31.4847 164.593 32.3119 164.224 33.0092C163.854 33.706 163.333 34.245 162.66 34.6274C161.987 35.0092 161.191 35.1995 160.269 35.1995ZM152.761 24.9641C152.348 24.9641 152 24.8336 151.715 24.5726C151.43 24.3122 151.288 23.9823 151.288 23.5823C151.288 23.17 151.43 22.8363 151.715 22.5823C152 22.3278 152.348 22.2005 152.761 22.2005C153.172 22.2005 153.518 22.3278 153.797 22.5823C154.075 22.8363 154.215 23.17 154.215 23.5823C154.215 23.9823 154.075 24.3122 153.797 24.5726C153.518 24.8336 153.172 24.9641 152.761 24.9641ZM150.615 34.9268V34.7455L150.87 34.6728C151.112 34.5995 151.279 34.4905 151.37 34.3455C151.461 34.1996 151.506 34.006 151.506 33.7637V28.0725C151.506 27.8185 151.461 27.6271 151.37 27.5003C151.279 27.3725 151.112 27.2848 150.87 27.2367L150.615 27.1816V26.9998L153.942 25.9271L154.124 26.1089L154.07 28.6907V33.7819C154.07 34.0242 154.115 34.2177 154.206 34.3637C154.297 34.5086 154.457 34.6177 154.688 34.6904L154.87 34.7455V34.9268H150.615ZM142.561 34.9268V34.7455L142.834 34.6728C143.076 34.5995 143.243 34.4905 143.334 34.3455C143.425 34.1996 143.47 34.0124 143.47 33.7819V28.0907C143.47 27.8244 143.425 27.6271 143.334 27.5003C143.243 27.3725 143.076 27.2848 142.834 27.2367L142.561 27.164V26.9816L145.688 25.9271L145.87 26.1089L146.034 27.6725V27.8185C146.203 27.4789 146.424 27.1672 146.697 26.8822C146.97 26.5972 147.273 26.364 147.606 26.1822C147.939 25.9999 148.27 25.9089 148.597 25.9089C149.057 25.9089 149.409 26.0362 149.652 26.2907C149.894 26.5458 150.015 26.8667 150.015 27.2549C150.015 27.6666 149.897 27.9848 149.661 28.2089C149.424 28.4335 149.143 28.5457 148.815 28.5457C148.306 28.5457 147.858 28.2907 147.47 27.7816L147.433 27.7458C147.312 27.5757 147.173 27.4822 147.015 27.4634C146.858 27.4453 146.712 27.5212 146.579 27.6907C146.458 27.7998 146.358 27.9303 146.279 28.0821C146.2 28.2335 146.124 28.4062 146.052 28.5998V33.6728C146.052 34.1573 146.263 34.4605 146.688 34.5814L147.27 34.7455V34.9268H142.561ZM136.198 24.509C136.367 24.194 136.561 23.8395 136.779 23.4459C136.997 23.0518 137.258 22.57 137.561 22.0005C137.767 21.6123 137.967 21.331 138.161 21.1551C138.355 20.9792 138.579 20.8909 138.834 20.8909C139.064 20.8909 139.264 20.9669 139.434 21.1182C139.603 21.2701 139.688 21.4546 139.688 21.6727C139.688 21.9032 139.61 22.1182 139.452 22.3182C139.294 22.5182 139.028 22.7518 138.652 23.0187C138.131 23.3823 137.695 23.6999 137.343 23.9727C136.992 24.2459 136.676 24.4849 136.398 24.6913L136.198 24.509ZM137.252 34.8364C137.676 34.8364 138.016 34.715 138.27 34.4728C138.525 34.2306 138.71 33.7996 138.825 33.1819C138.94 32.5638 138.997 31.6911 138.997 30.5633C138.997 29.4243 138.94 28.5457 138.825 27.9276C138.71 27.3089 138.525 26.879 138.27 26.6367C138.016 26.394 137.676 26.2731 137.252 26.2731C136.827 26.2731 136.485 26.394 136.225 26.6367C135.964 26.879 135.776 27.3089 135.661 27.9276C135.546 28.5457 135.488 29.4243 135.488 30.5633C135.488 31.6911 135.546 32.5638 135.661 33.1819C135.776 33.7996 135.964 34.2306 136.225 34.4728C136.485 34.715 136.827 34.8364 137.252 34.8364ZM137.252 35.1995C136.331 35.1995 135.531 35.0092 134.852 34.6274C134.174 34.245 133.649 33.7028 133.279 33.0001C132.909 32.297 132.725 31.4724 132.725 30.5275C132.725 29.5815 132.922 28.7634 133.316 28.0725C133.709 27.3816 134.249 26.8485 134.934 26.4731C135.619 26.0972 136.392 25.9089 137.252 25.9089C138.112 25.9089 138.882 26.094 139.561 26.4635C140.24 26.8335 140.776 27.364 141.17 28.0549C141.564 28.7457 141.761 29.5698 141.761 30.5275C141.761 31.4847 141.576 32.3119 141.206 33.0092C140.837 33.706 140.316 34.245 139.643 34.6274C138.97 35.0092 138.173 35.1995 137.252 35.1995ZM129.598 35.1995C128.822 35.1995 128.219 35.0059 127.789 34.6177C127.358 34.2306 127.143 33.6119 127.143 32.7638V26.5458H125.889V26.364L126.325 26.2907C126.701 26.2063 127.025 26.0849 127.298 25.9271C127.571 25.7699 127.84 25.5576 128.107 25.2913L129.598 23.6363H129.78L129.725 26.1822H131.761V26.5458H129.707V33.091C129.707 33.5151 129.801 33.8359 129.989 34.0546C130.177 34.2728 130.416 34.3819 130.707 34.3819C130.961 34.3819 131.186 34.3183 131.38 34.1905C131.574 34.0632 131.768 33.8905 131.961 33.6728L132.143 33.8547C131.901 34.2664 131.568 34.5937 131.143 34.8364C130.719 35.0787 130.204 35.1995 129.598 35.1995ZM120.998 34.9268V34.7455L121.216 34.6728C121.653 34.5268 121.871 34.2242 121.871 33.7637V24.0363C121.871 23.794 121.822 23.609 121.725 23.4818C121.629 23.355 121.458 23.2609 121.216 23.2005L120.98 23.1454V22.9636L124.307 22.1818L124.525 22.3454L124.452 24.8913V31.1093C124.452 31.5579 124.455 32.0034 124.462 32.4456C124.467 32.8878 124.471 33.3269 124.471 33.7637C124.471 34.006 124.519 34.2028 124.616 34.3541C124.713 34.506 124.877 34.6177 125.107 34.6904L125.343 34.7455V34.9268H120.998ZM113.926 35.1995C113.453 35.1995 113.02 35.1086 112.626 34.9268C112.232 34.7455 111.923 34.4514 111.699 34.045C111.474 33.6392 111.368 33.1028 111.381 32.436L111.435 27.7634C111.435 27.4848 111.387 27.2848 111.29 27.164C111.193 27.0426 111.041 26.9576 110.835 26.9089L110.617 26.8367V26.6549L113.872 26.018L114.053 26.1998L113.962 28.7816V33.1638C113.962 33.5515 114.074 33.8359 114.299 34.0177C114.523 34.1996 114.805 34.2905 115.144 34.2905C115.483 34.2905 115.786 34.2423 116.053 34.1455C116.32 34.0482 116.586 33.9028 116.853 33.7087L116.926 27.7816C116.926 27.5035 116.883 27.3062 116.799 27.1913C116.714 27.0757 116.556 26.9939 116.326 26.9458L116.144 26.8907V26.7089L119.326 26.018L119.508 26.1998L119.453 28.7816V33.7087C119.453 33.9755 119.49 34.1819 119.562 34.3268C119.635 34.4728 119.792 34.5937 120.035 34.6904L120.217 34.7455V34.9268L117.035 35.1086L116.871 34.0359C116.471 34.3637 116.038 34.6391 115.572 34.8632C115.105 35.0872 114.556 35.1995 113.926 35.1995ZM105.963 35.1995C105.369 35.1995 104.836 35.1295 104.363 34.991C103.89 34.8514 103.454 34.6792 103.054 34.4728L103.072 32.3087H103.254L103.872 33.3996C104.139 33.8846 104.432 34.245 104.754 34.4814C105.075 34.7183 105.484 34.8364 105.981 34.8364C106.563 34.8364 107.032 34.706 107.39 34.445C107.748 34.1851 107.926 33.8359 107.926 33.3996C107.926 33.0001 107.799 32.6729 107.545 32.4178C107.29 32.1633 106.817 31.9333 106.126 31.7269L105.363 31.4911C104.623 31.2724 104.041 30.9334 103.617 30.4724C103.193 30.012 102.981 29.4484 102.981 28.7816C102.981 27.9816 103.296 27.3035 103.926 26.7458C104.556 26.1881 105.46 25.9089 106.635 25.9089C107.108 25.9089 107.554 25.9608 107.972 26.0635C108.39 26.1672 108.793 26.3218 109.181 26.5271L109.072 28.4907H108.89L108.254 27.364C108.023 26.964 107.796 26.6822 107.572 26.5185C107.348 26.3544 107.011 26.2731 106.563 26.2731C106.15 26.2731 105.763 26.3881 105.399 26.618C105.036 26.8485 104.854 27.1757 104.854 27.5998C104.854 28.0121 105.008 28.3393 105.317 28.5816C105.626 28.8243 106.084 29.0484 106.69 29.2543L107.508 29.4906C108.381 29.7575 109.005 30.1243 109.381 30.5906C109.756 31.0574 109.944 31.6178 109.944 32.2729C109.944 33.1573 109.596 33.8664 108.899 34.3996C108.202 34.9327 107.223 35.1995 105.963 35.1995ZM92.3092 34.9268V34.7455L92.5632 34.6728C92.9878 34.5514 93.2001 34.2546 93.2001 33.7819V28.0907C93.2001 27.8244 93.1573 27.6271 93.0723 27.5003C92.9878 27.3725 92.8237 27.2848 92.5814 27.2367L92.3092 27.164V26.9816L95.4182 25.9271L95.5995 26.1089L95.7449 27.1998C96.169 26.8244 96.6481 26.5153 97.1813 26.2731C97.7144 26.0309 98.2422 25.9089 98.763 25.9089C99.563 25.9089 100.178 26.1271 100.609 26.564C101.039 26.9998 101.254 27.6666 101.254 28.5634V33.7996C101.254 34.2728 101.484 34.5696 101.945 34.6904L102.108 34.7455V34.9268H97.8176V34.7455L98.0539 34.6728C98.4785 34.5391 98.6903 34.2423 98.6903 33.7819V27.9816C98.6903 27.2062 98.3026 26.818 97.5267 26.818C96.9936 26.818 96.4118 27.0848 95.7813 27.618V33.7996C95.7813 34.2728 95.9936 34.5696 96.4176 34.6904L96.5813 34.7455V34.9268H92.3092ZM87.0003 34.8364C87.4244 34.8364 87.7639 34.715 88.0185 34.4728C88.273 34.2306 88.4575 33.7996 88.573 33.1819C88.688 32.5638 88.7457 31.6911 88.7457 30.5633C88.7457 29.4243 88.688 28.5457 88.573 27.9276C88.4575 27.3089 88.273 26.879 88.0185 26.6367C87.7639 26.394 87.4244 26.2731 87.0003 26.2731C86.5758 26.2731 86.2335 26.394 85.9726 26.6367C85.7122 26.879 85.5245 27.3089 85.4095 27.9276C85.294 28.5457 85.2362 29.4243 85.2362 30.5633C85.2362 31.6911 85.294 32.5638 85.4095 33.1819C85.5245 33.7996 85.7122 34.2306 85.9726 34.4728C86.2335 34.715 86.5758 34.8364 87.0003 34.8364ZM87.0003 35.1995C86.079 35.1995 85.279 35.0092 84.6004 34.6274C83.9213 34.245 83.3973 33.7028 83.0277 33.0001C82.6577 32.297 82.4732 31.4724 82.4732 30.5275C82.4732 29.5815 82.67 28.7634 83.0641 28.0725C83.4577 27.3816 83.9972 26.8485 84.6817 26.4731C85.3667 26.0972 86.1394 25.9089 87.0003 25.9089C87.8607 25.9089 88.6302 26.094 89.3093 26.4635C89.9879 26.8335 90.5243 27.364 90.9178 28.0549C91.3119 28.7457 91.5087 29.5698 91.5087 30.5275C91.5087 31.4847 91.3242 32.3119 90.9542 33.0092C90.5847 33.706 90.0639 34.245 89.3912 34.6274C88.7184 35.0092 87.9212 35.1995 87.0003 35.1995ZM77.7274 35.2546C76.552 35.2546 75.4884 35.015 74.5371 34.5359C73.5853 34.0573 72.8308 33.345 72.2736 32.4002C71.7159 31.4542 71.4373 30.297 71.4373 28.9276C71.4373 27.8853 71.6068 26.9704 71.9458 26.1822C72.2853 25.394 72.749 24.7336 73.3372 24.2004C73.9249 23.6668 74.6034 23.2673 75.3735 23.0005C76.143 22.7337 76.9579 22.6005 77.8183 22.6005C78.5092 22.6005 79.1461 22.6791 79.7279 22.8363C80.3097 22.9941 80.8551 23.2123 81.3642 23.4914L81.4369 25.7271H81.2551L80.3455 24.2732C80.2246 24.0427 80.0909 23.8336 79.9455 23.6459C79.8 23.4577 79.6188 23.316 79.4001 23.2181C79.2188 23.1336 79.0397 23.0705 78.8637 23.0278C78.6883 22.985 78.4669 22.9636 78.2006 22.9636C77.4975 22.9636 76.8579 23.1518 76.2825 23.5272C75.7066 23.9031 75.2462 24.5245 74.9008 25.3908C74.5553 26.2581 74.3826 27.4426 74.3826 28.9457C74.3826 30.4361 74.5462 31.6152 74.8735 32.4814C75.2002 33.3483 75.6457 33.9669 76.2098 34.3359C76.7734 34.706 77.4066 34.8904 78.1097 34.8904C78.4974 34.8904 78.8065 34.8632 79.037 34.8092C79.2669 34.7541 79.4974 34.6728 79.7279 34.5637C79.9578 34.4664 80.1337 34.3242 80.2551 34.1365C80.376 33.9482 80.4851 33.745 80.5824 33.5269L81.3818 31.7451H81.5642L81.5096 34.3455C81.0006 34.6124 80.4305 34.83 79.8001 34.9995C79.1701 35.1696 78.4793 35.2546 77.7274 35.2546Z" fill="#3D4D41"/>
</svg>
